Untitled.ufo
<glyph name="quotedbl" format="2">
  <advance width="768"/>
  <unicode hex="0022"/>
  <outline>
    <contour>
      <point x="384" y="512" type="line"/>
      <point x="384" y="896" type="line"/>
      <point x="512" y="896" type="line"/>
      <point x="512" y="512" type="line"/>
    </contour>
    <contour>
      <point x="128" y="512" type="line"/>
      <point x="128" y="896" type="line"/>
      <point x="256" y="896" type="line"/>
      <point x="256" y="512" type="line"/>
    </contour>
  </outline>
</glyph>
<glyph name="percent" format="2">
  <advance width="768"/>
  <unicode hex="0025"/>
  <outline>
    <contour>
      <point x="549" y="128" type="line"/>
      <point x="512" y="165" type="line"/>
      <point x="512" y="219" type="line"/>
      <point x="549" y="256" type="line"/>
      <point x="603" y="256" type="line"/>
      <point x="640" y="219" type="line"/>
      <point x="640" y="165" type="line"/>
      <point x="603" y="128" type="line"/>
    </contour>
    <contour>
      <point x="37" y="640" type="line"/>
      <point x="0" y="677" type="line"/>
      <point x="0" y="731" type="line"/>
      <point x="37" y="768" type="line"/>
      <point x="91" y="768" type="line"/>
      <point x="128" y="731" type="line"/>
      <point x="128" y="677" type="line"/>
      <point x="91" y="640" type="line"/>
    </contour>
    <contour>
      <point x="91" y="128" type="line"/>
      <point x="0" y="219" type="line"/>
      <point x="549" y="768" type="line"/>
      <point x="640" y="677" type="line"/>
    </contour>
  </outline>
</glyph>
<glyph name="ampersand" format="2">
  <advance width="768"/>
  <unicode hex="0026"/>
  <outline>
    <contour>
      <point x="165" y="0" type="line"/>
      <point x="0" y="165" type="line"/>
      <point x="0" y="347" type="line"/>
      <point x="101" y="448" type="line"/>
      <point x="0" y="549" type="line"/>
      <point x="0" y="731" type="line"/>
      <point x="165" y="896" type="line"/>
      <point x="219" y="896" type="line"/>
      <point x="384" y="731" type="line"/>
      <point x="384" y="549" type="line"/>
      <point x="283" y="448" type="line"/>
      <point x="448" y="283" type="line"/>
      <point x="549" y="384" type="line"/>
      <point x="640" y="293" type="line"/>
      <point x="539" y="192" type="line"/>
      <point x="640" y="91" type="line"/>
      <point x="549" y="0" type="line"/>
      <point x="448" y="101" type="line"/>
      <point x="347" y="0" type="line"/>
    </contour>
    <contour>
      <point x="192" y="539" type="line"/>
      <point x="256" y="603" type="line"/>
      <point x="256" y="677" type="line"/>
      <point x="192" y="741" type="line"/>
      <point x="128" y="677" type="line"/>
      <point x="128" y="603" type="line"/>
    </contour>
    <contour>
      <point x="219" y="128" type="line"/>
      <point x="293" y="128" type="line"/>
      <point x="357" y="192" type="line"/>
      <point x="192" y="357" type="line"/>
      <point x="128" y="293" type="line"/>
      <point x="128" y="219" type="line"/>
    </contour>
  </outline>
</glyph>
<glyph name="quotesingle" format="2">
  <advance width="768"/>
  <unicode hex="0027"/>
  <outline>
    <contour>
      <point x="256" y="512" type="line"/>
      <point x="256" y="896" type="line"/>
      <point x="384" y="896" type="line"/>
      <point x="384" y="512" type="line"/>
    </contour>
  </outline>
</glyph>
<glyph name="parenleft" format="2">
  <advance width="768"/>
  <unicode hex="0028"/>
  <outline>
    <contour>
      <point x="421" y="0" type="line"/>
      <point x="128" y="293" type="line"/>
      <point x="128" y="603" type="line"/>
      <point x="421" y="896" type="line"/>
      <point x="512" y="805" type="line"/>
      <point x="256" y="549" type="line"/>
      <point x="256" y="347" type="line"/>
      <point x="512" y="91" type="line"/>
    </contour>
  </outline>
</glyph>
<glyph name="parenright" format="2">
  <advance width="768"/>
  <unicode hex="0029"/>
  <outline>
    <contour>
      <point x="219" y="0" type="line"/>
      <point x="128" y="91" type="line"/>
      <point x="384" y="347" type="line"/>
      <point x="384" y="549" type="line"/>
      <point x="128" y="805" type="line"/>
      <point x="219" y="896" type="line"/>
      <point x="512" y="603" type="line"/>
      <point x="512" y="293" type="line"/>
    </contour>
  </outline>
</glyph>
<glyph name="asterisk" format="2">
  <advance width="768"/>
  <unicode hex="002A"/>
  <outline>
    <contour>
      <point x="256" y="128" type="line"/>
      <point x="256" y="384" type="line"/>
      <point x="219" y="384" type="line"/>
      <point x="91" y="256" type="line"/>
      <point x="0" y="347" type="line"/>
      <point x="101" y="448" type="line"/>
      <point x="0" y="549" type="line"/>
      <point x="91" y="640" type="line"/>
      <point x="219" y="512" type="line"/>
      <point x="256" y="512" type="line"/>
      <point x="256" y="768" type="line"/>
      <point x="384" y="768" type="line"/>
      <point x="384" y="512" type="line"/>
      <point x="421" y="512" type="line"/>
      <point x="549" y="640" type="line"/>
      <point x="640" y="549" type="line"/>
      <point x="539" y="448" type="line"/>
      <point x="640" y="347" type="line"/>
      <point x="549" y="256" type="line"/>
      <point x="421" y="384" type="line"/>
      <point x="384" y="384" type="line"/>
      <point x="384" y="128" type="line"/>
    </contour>
  </outline>
</glyph>
<glyph name="plus" format="2">
  <advance width="768"/>
  <unicode hex="002B"/>
  <outline>
    <contour>
      <point x="256" y="128" type="line"/>
      <point x="256" y="384" type="line"/>
      <point x="0" y="384" type="line"/>
      <point x="0" y="512" type="line"/>
      <point x="256" y="512" type="line"/>
      <point x="256" y="768" type="line"/>
      <point x="384" y="768" type="line"/>
      <point x="384" y="512" type="line"/>
      <point x="640" y="512" type="line"/>
      <point x="640" y="384" type="line"/>
      <point x="384" y="384" type="line"/>
      <point x="384" y="128" type="line"/>
    </contour>
  </outline>
</glyph>
<glyph name="period" format="2">
  <advance width="768"/>
  <unicode hex="002E"/>
  <outline>
    <contour>
      <point x="293" y="0" type="line"/>
      <point x="256" y="37" type="line"/>
      <point x="256" y="91" type="line"/>
      <point x="293" y="128" type="line"/>
      <point x="347" y="128" type="line"/>
      <point x="384" y="91" type="line"/>
      <point x="384" y="37" type="line"/>
      <point x="347" y="0" type="line"/>
    </contour>
  </outline>
</glyph>
<glyph name="one" format="2">
  <advance width="768"/>
  <unicode hex="0031"/>
  <outline>
    <contour>
      <point x="384" y="0" type="line"/>
      <point x="384" y="677" type="line"/>
      <point x="219" y="512" type="line"/>
      <point x="128" y="603" type="line"/>
      <point x="421" y="896" type="line"/>
      <point x="512" y="896" type="line"/>
      <point x="512" y="0" type="line"/>
    </contour>
  </outline>
</glyph>
<glyph name="two" format="2">
  <advance width="768"/>
  <unicode hex="0032"/>
  <outline>
    <contour>
      <point x="0" y="0" type="line"/>
      <point x="0" y="91" type="line"/>
      <point x="512" y="603" type="line"/>
      <point x="512" y="677" type="line"/>
      <point x="421" y="768" type="line"/>
      <point x="219" y="768" type="line"/>
      <point x="91" y="640" type="line"/>
      <point x="0" y="731" type="line"/>
      <point x="165" y="896" type="line"/>
      <point x="475" y="896" type="line"/>
      <point x="640" y="731" type="line"/>
      <point x="640" y="549" type="line"/>
      <point x="219" y="128" type="line"/>
      <point x="640" y="128" type="line"/>
      <point x="640" y="0" type="line"/>
    </contour>
  </outline>
</glyph>
<glyph name="semicolon" format="2">
  <advance width="768"/>
  <unicode hex="003B"/>
  <outline>
    <contour>
      <point x="421" y="640" type="line"/>
      <point x="384" y="677" type="line"/>
      <point x="384" y="731" type="line"/>
      <point x="421" y="768" type="line"/>
      <point x="475" y="768" type="line"/>
      <point x="512" y="731" type="line"/>
      <point x="512" y="677" type="line"/>
      <point x="475" y="640" type="line"/>
    </contour>
    <contour>
      <point x="219" y="-256" type="line"/>
      <point x="128" y="-165" type="line"/>
      <point x="421" y="128" type="line"/>
      <point x="512" y="37" type="line"/>
    </contour>
  </outline>
</glyph>
<glyph name="less" format="2">
  <advance width="768"/>
  <unicode hex="003C"/>
  <outline>
    <contour>
      <point x="101" y="448" type="line"/>
      <point x="421" y="768" type="line"/>
      <point x="512" y="677" type="line"/>
      <point x="283" y="448" type="line"/>
      <point x="512" y="219" type="line"/>
      <point x="421" y="128" type="line"/>
    </contour>
  </outline>
</glyph>
<glyph name="greater" format="2">
  <advance width="768"/>
  <unicode hex="003E"/>
  <outline>
    <contour>
      <point x="128" y="219" type="line"/>
      <point x="357" y="448" type="line"/>
      <point x="128" y="677" type="line"/>
      <point x="219" y="768" type="line"/>
      <point x="539" y="448" type="line"/>
      <point x="219" y="128" type="line"/>
    </contour>
  </outline>
</glyph>
<glyph name="question" format="2">
  <advance width="768"/>
  <unicode hex="003F"/>
  <outline>
    <contour>
      <point x="256" y="256" type="line"/>
      <point x="256" y="347" type="line"/>
      <point x="512" y="603" type="line"/>
      <point x="512" y="677" type="line"/>
      <point x="421" y="768" type="line"/>
      <point x="219" y="768" type="line"/>
      <point x="91" y="640" type="line"/>
      <point x="0" y="731" type="line"/>
      <point x="165" y="896" type="line"/>
      <point x="475" y="896" type="line"/>
      <point x="640" y="731" type="line"/>
      <point x="640" y="549" type="line"/>
      <point x="384" y="293" type="line"/>
      <point x="384" y="256" type="line"/>
    </contour>
    <contour>
      <point x="293" y="0" type="line"/>
      <point x="256" y="37" type="line"/>
      <point x="256" y="91" type="line"/>
      <point x="293" y="128" type="line"/>
      <point x="347" y="128" type="line"/>
      <point x="384" y="91" type="line"/>
      <point x="384" y="37" type="line"/>
      <point x="347" y="0" type="line"/>
    </contour>
  </outline>
</glyph>
<glyph name="at" format="2">
  <advance width="768"/>
  <unicode hex="0040"/>
  <outline>
    <contour>
      <point x="165" y="0" type="line"/>
      <point x="0" y="165" type="line"/>
      <point x="0" y="731" type="line"/>
      <point x="165" y="896" type="line"/>
      <point x="475" y="896" type="line"/>
      <point x="640" y="731" type="line"/>
      <point x="640" y="352" type="line"/>
      <point x="549" y="256" type="line"/>
      <point x="347" y="256" type="line"/>
      <point x="256" y="347" type="line"/>
      <point x="256" y="549" type="line"/>
      <point x="348" y="640" type="line"/>
      <point x="512" y="640" type="line"/>
      <point x="512" y="677" type="line"/>
      <point x="421" y="768" type="line"/>
      <point x="219" y="768" type="line"/>
      <point x="128" y="677" type="line"/>
      <point x="128" y="219" type="line"/>
      <point x="219" y="128" type="line"/>
      <point x="640" y="128" type="line"/>
      <point x="640" y="0" type="line"/>
    </contour>
    <contour>
      <point x="384" y="384" type="line"/>
      <point x="512" y="384" type="line"/>
      <point x="512" y="512" type="line"/>
      <point x="384" y="512" type="line"/>
    </contour>
  </outline>
</glyph>
<glyph name="C" format="2">
  <advance width="768"/>
  <unicode hex="0043"/>
  <outline>
    <contour>
      <point x="165" y="0" type="line"/>
      <point x="0" y="165" type="line"/>
      <point x="0" y="731" type="line"/>
      <point x="165" y="896" type="line"/>
      <point x="475" y="896" type="line"/>
      <point x="640" y="731" type="line"/>
      <point x="549" y="640" type="line"/>
      <point x="421" y="768" type="line"/>
      <point x="219" y="768" type="line"/>
      <point x="128" y="677" type="line"/>
      <point x="128" y="219" type="line"/>
      <point x="219" y="128" type="line"/>
      <point x="421" y="128" type="line"/>
      <point x="549" y="256" type="line"/>
      <point x="640" y="165" type="line"/>
      <point x="475" y="0" type="line"/>
    </contour>
  </outline>
</glyph>
<glyph name="G" format="2">
  <advance width="768"/>
  <unicode hex="0047"/>
  <outline>
    <contour>
      <point x="165" y="0" type="line"/>
      <point x="0" y="165" type="line"/>
      <point x="0" y="731" type="line"/>
      <point x="165" y="896" type="line"/>
      <point x="475" y="896" type="line"/>
      <point x="640" y="731" type="line"/>
      <point x="544" y="645" type="line"/>
      <point x="421" y="768" type="line"/>
      <point x="219" y="768" type="line"/>
      <point x="128" y="677" type="line"/>
      <point x="128" y="219" type="line"/>
      <point x="219" y="128" type="line"/>
      <point x="421" y="128" type="line"/>
      <point x="512" y="219" type="line"/>
      <point x="512" y="384" type="line"/>
      <point x="384" y="384" type="line"/>
      <point x="384" y="512" type="line"/>
      <point x="640" y="512" type="line"/>
      <point x="640" y="165" type="line"/>
      <point x="475" y="0" type="line"/>
    </contour>
  </outline>
</glyph>
<glyph name="K" format="2">
  <advance width="768"/>
  <unicode hex="004B"/>
  <outline>
    <contour>
      <point x="0" y="0" type="line"/>
      <point x="0" y="896" type="line"/>
      <point x="128" y="896" type="line"/>
      <point x="128" y="512" type="line"/>
      <point x="166" y="513" type="line"/>
      <point x="549" y="896" type="line"/>
      <point x="640" y="805" type="line"/>
      <point x="283" y="448" type="line"/>
      <point x="640" y="91" type="line"/>
      <point x="549" y="0" type="line"/>
      <point x="164" y="385" type="line"/>
      <point x="128" y="384" type="line"/>
      <point x="128" y="0" type="line"/>
    </contour>
  </outline>
</glyph>
<glyph name="M" format="2">
  <advance width="768"/>
  <unicode hex="004D"/>
  <outline>
    <contour>
      <point x="0" y="0" type="line"/>
      <point x="0" y="896" type="line"/>
      <point x="91" y="896" type="line"/>
      <point x="320" y="667" type="line"/>
      <point x="549" y="896" type="line"/>
      <point x="640" y="896" type="line"/>
      <point x="640" y="0" type="line"/>
      <point x="512" y="0" type="line"/>
      <point x="512" y="677" type="line"/>
      <point x="320" y="485" type="line"/>
      <point x="128" y="677" type="line"/>
      <point x="128" y="0" type="line"/>
    </contour>
  </outline>
</glyph>
<glyph name="O" format="2">
  <advance width="768"/>
  <unicode hex="004F"/>
  <outline>
    <contour>
      <point x="165" y="0" type="line"/>
      <point x="0" y="165" type="line"/>
      <point x="0" y="731" type="line"/>
      <point x="165" y="896" type="line"/>
      <point x="475" y="896" type="line"/>
      <point x="640" y="731" type="line"/>
      <point x="640" y="165" type="line"/>
      <point x="475" y="0" type="line"/>
    </contour>
    <contour>
      <point x="219" y="128" type="line"/>
      <point x="421" y="128" type="line"/>
      <point x="512" y="219" type="line"/>
      <point x="512" y="677" type="line"/>
      <point x="421" y="768" type="line"/>
      <point x="219" y="768" type="line"/>
      <point x="128" y="677" type="line"/>
      <point x="128" y="219" type="line"/>
    </contour>
  </outline>
</glyph>
<glyph name="Q" format="2">
  <advance width="768"/>
  <unicode hex="0051"/>
  <outline>
    <contour>
      <point x="165" y="0" type="line"/>
      <point x="0" y="165" type="line"/>
      <point x="0" y="731" type="line"/>
      <point x="165" y="896" type="line"/>
      <point x="475" y="896" type="line"/>
      <point x="640" y="731" type="line"/>
      <point x="640" y="165" type="line"/>
      <point x="539" y="64" type="line"/>
      <point x="640" y="-37" type="line"/>
      <point x="640" y="-256" type="line"/>
      <point x="512" y="-256" type="line"/>
      <point x="512" y="-91" type="line"/>
      <point x="421" y="0" type="line"/>
    </contour>
    <contour>
      <point x="219" y="128" type="line"/>
      <point x="421" y="128" type="line"/>
      <point x="512" y="219" type="line"/>
      <point x="512" y="677" type="line"/>
      <point x="421" y="768" type="line"/>
      <point x="219" y="768" type="line"/>
      <point x="128" y="677" type="line"/>
      <point x="128" y="219" type="line"/>
    </contour>
  </outline>
</glyph>
<glyph name="S" format="2">
  <advance width="768"/>
  <unicode hex="0053"/>
  <outline>
    <contour>
      <point x="165" y="0" type="line"/>
      <point x="0" y="165" type="line"/>
      <point x="91" y="256" type="line"/>
      <point x="219" y="128" type="line"/>
      <point x="421" y="128" type="line"/>
      <point x="512" y="219" type="line"/>
      <point x="512" y="293" type="line"/>
      <point x="421" y="384" type="line"/>
      <point x="165" y="384" type="line"/>
      <point x="0" y="549" type="line"/>
      <point x="0" y="731" type="line"/>
      <point x="165" y="896" type="line"/>
      <point x="475" y="896" type="line"/>
      <point x="640" y="731" type="line"/>
      <point x="549" y="640" type="line"/>
      <point x="421" y="768" type="line"/>
      <point x="219" y="768" type="line"/>
      <point x="128" y="677" type="line"/>
      <point x="128" y="603" type="line"/>
      <point x="219" y="512" type="line"/>
      <point x="475" y="512" type="line"/>
      <point x="640" y="347" type="line"/>
      <point x="640" y="165" type="line"/>
      <point x="475" y="0" type="line"/>
    </contour>
  </outline>
</glyph>
<glyph name="W" format="2">
  <advance width="768"/>
  <unicode hex="0057"/>
  <outline>
    <contour>
      <point x="0" y="0" type="line"/>
      <point x="0" y="896" type="line"/>
      <point x="128" y="896" type="line"/>
      <point x="128" y="219" type="line"/>
      <point x="320" y="411" type="line"/>
      <point x="512" y="219" type="line"/>
      <point x="512" y="896" type="line"/>
      <point x="640" y="896" type="line"/>
      <point x="640" y="0" type="line"/>
      <point x="549" y="0" type="line"/>
      <point x="320" y="229" type="line"/>
      <point x="91" y="0" type="line"/>
    </contour>
  </outline>
</glyph>
<glyph name="Y" format="2">
  <advance width="768"/>
  <unicode hex="0059"/>
  <outline>
    <contour>
      <point x="256" y="0" type="line"/>
      <point x="256" y="421" type="line"/>
      <point x="0" y="677" type="line"/>
      <point x="0" y="896" type="line"/>
      <point x="128" y="896" type="line"/>
      <point x="128" y="731" type="line"/>
      <point x="320" y="539" type="line"/>
      <point x="512" y="731" type="line"/>
      <point x="512" y="896" type="line"/>
      <point x="640" y="896" type="line"/>
      <point x="640" y="677" type="line"/>
      <point x="384" y="421" type="line"/>
      <point x="384" y="0" type="line"/>
    </contour>
  </outline>
</glyph>
<glyph name="backslash" format="2">
  <advance width="768"/>
  <unicode hex="005C"/>
  <outline>
    <contour>
      <point x="0" y="677" type="line"/>
      <point x="91" y="768" type="line"/>
      <point x="640" y="219" type="line"/>
      <point x="549" y="128" type="line"/>
    </contour>
  </outline>
</glyph>
<glyph name="asciicircum" format="2">
  <advance width="768"/>
  <unicode hex="005E"/>
  <outline>
    <contour>
      <point x="219" y="640" type="line"/>
      <point x="128" y="731" type="line"/>
      <point x="320" y="923" type="line"/>
      <point x="512" y="731" type="line"/>
      <point x="421" y="640" type="line"/>
      <point x="320" y="741" type="line"/>
    </contour>
  </outline>
</glyph>
<glyph name="a" format="2">
  <advance width="768"/>
  <unicode hex="0061"/>
  <outline>
    <contour>
      <point x="0" y="165" type="line"/>
      <point x="0" y="219" type="line"/>
      <point x="165" y="384" type="line"/>
      <point x="512" y="384" type="line"/>
      <point x="512" y="421" type="line"/>
      <point x="421" y="512" type="line"/>
      <point x="128" y="512" type="line"/>
      <point x="128" y="640" type="line"/>
      <point x="475" y="640" type="line"/>
      <point x="640" y="475" type="line"/>
      <point x="640" y="0" type="line"/>
      <point x="165" y="0" type="line"/>
    </contour>
    <contour>
      <point x="155" y="192" type="line"/>
      <point x="219" y="128" type="line"/>
      <point x="512" y="128" type="line"/>
      <point x="512" y="256" type="line"/>
      <point x="219" y="256" type="line"/>
    </contour>
  </outline>
</glyph>
<glyph name="e" format="2">
  <advance width="768"/>
  <unicode hex="0065"/>
  <outline>
    <contour>
      <point x="165" y="0" type="line"/>
      <point x="0" y="165" type="line"/>
      <point x="0" y="475" type="line"/>
      <point x="165" y="640" type="line"/>
      <point x="475" y="640" type="line"/>
      <point x="640" y="475" type="line"/>
      <point x="640" y="256" type="line"/>
      <point x="128" y="256" type="line"/>
      <point x="128" y="219" type="line"/>
      <point x="219" y="128" type="line"/>
      <point x="640" y="128" type="line"/>
      <point x="640" y="0" type="line"/>
    </contour>
    <contour>
      <point x="128" y="384" type="line"/>
      <point x="512" y="384" type="line"/>
      <point x="512" y="421" type="line"/>
      <point x="421" y="512" type="line"/>
      <point x="219" y="512" type="line"/>
      <point x="128" y="421" type="line"/>
    </contour>
  </outline>
</glyph>
<glyph name="g" format="2">
  <advance width="768"/>
  <unicode hex="0067"/>
  <outline>
    <contour>
      <point x="128" y="-256" type="line"/>
      <point x="128" y="-128" type="line"/>
      <point x="421" y="-128" type="line"/>
      <point x="512" y="-37" type="line"/>
      <point x="512" y="0" type="line"/>
      <point x="165" y="0" type="line"/>
      <point x="0" y="165" type="line"/>
      <point x="0" y="475" type="line"/>
      <point x="165" y="640" type="line"/>
      <point x="475" y="640" type="line"/>
      <point x="640" y="475" type="line"/>
      <point x="640" y="-91" type="line"/>
      <point x="475" y="-256" type="line"/>
    </contour>
    <contour>
      <point x="219" y="128" type="line"/>
      <point x="512" y="128" type="line"/>
      <point x="512" y="421" type="line"/>
      <point x="421" y="512" type="line"/>
      <point x="219" y="512" type="line"/>
      <point x="128" y="421" type="line"/>
      <point x="128" y="219" type="line"/>
    </contour>
  </outline>
</glyph>
<glyph name="l" format="2">
  <advance width="768"/>
  <unicode hex="006C"/>
  <outline>
    <contour>
      <point x="0" y="0" type="line"/>
      <point x="0" y="128" type="line"/>
      <point x="256" y="128" type="line"/>
      <point x="256" y="768" type="line"/>
      <point x="0" y="768" type="line"/>
      <point x="0" y="896" type="line"/>
      <point x="384" y="896" type="line"/>
      <point x="384" y="128" type="line"/>
      <point x="640" y="128" type="line"/>
      <point x="640" y="0" type="line"/>
    </contour>
  </outline>
</glyph>
<glyph name="u" format="2">
  <advance width="768"/>
  <unicode hex="0075"/>
  <outline>
    <contour>
      <point x="0" y="165" type="line"/>
      <point x="0" y="640" type="line"/>
      <point x="128" y="640" type="line"/>
      <point x="128" y="219" type="line"/>
      <point x="219" y="128" type="line"/>
      <point x="421" y="128" type="line"/>
      <point x="512" y="219" type="line"/>
      <point x="512" y="640" type="line"/>
      <point x="640" y="640" type="line"/>
      <point x="640" y="165" type="line"/>
      <point x="475" y="0" type="line"/>
      <point x="165" y="0" type="line"/>
    </contour>
  </outline>
</glyph>
<glyph name="v" format="2">
  <advance width="768"/>
  <unicode hex="0076"/>
  <outline>
    <contour>
      <point x="0" y="293" type="line"/>
      <point x="0" y="640" type="line"/>
      <point x="128" y="640" type="line"/>
      <point x="128" y="347" type="line"/>
      <point x="320" y="155" type="line"/>
      <point x="512" y="347" type="line"/>
      <point x="512" y="640" type="line"/>
      <point x="640" y="640" type="line"/>
      <point x="640" y="293" type="line"/>
      <point x="320" y="-27" type="line"/>
    </contour>
  </outline>
</glyph>
<glyph name="x" format="2">
  <advance width="768"/>
  <unicode hex="0078"/>
  <outline>
    <contour>
      <point x="91" y="0" type="line"/>
      <point x="0" y="91" type="line"/>
      <point x="229" y="320" type="line"/>
      <point x="0" y="549" type="line"/>
      <point x="91" y="640" type="line"/>
      <point x="320" y="411" type="line"/>
      <point x="549" y="640" type="line"/>
      <point x="640" y="549" type="line"/>
      <point x="411" y="320" type="line"/>
      <point x="640" y="91" type="line"/>
      <point x="549" y="0" type="line"/>
      <point x="320" y="229" type="line"/>
    </contour>
  </outline>
</glyph>
<glyph name="y" format="2">
  <advance width="768"/>
  <unicode hex="0079"/>
  <outline>
    <contour>
      <point x="0" y="165" type="line"/>
      <point x="0" y="640" type="line"/>
      <point x="128" y="640" type="line"/>
      <point x="128" y="219" type="line"/>
      <point x="219" y="128" type="line"/>
      <point x="512" y="128" type="line"/>
      <point x="512" y="640" type="line"/>
      <point x="640" y="640" type="line"/>
      <point x="640" y="-91" type="line"/>
      <point x="475" y="-256" type="line"/>
      <point x="128" y="-256" type="line"/>
      <point x="128" y="-128" type="line"/>
      <point x="421" y="-128" type="line"/>
      <point x="512" y="-37" type="line"/>
      <point x="512" y="0" type="line"/>
      <point x="165" y="0" type="line"/>
    </contour>
  </outline>
</glyph>
<glyph name="braceleft" format="2">
  <advance width="768"/>
  <unicode hex="007B"/>
  <outline>
    <contour>
      <point x="421" y="0" type="line"/>
      <point x="256" y="165" type="line"/>
      <point x="256" y="293" type="line"/>
      <point x="101" y="448" type="line"/>
      <point x="256" y="603" type="line"/>
      <point x="256" y="731" type="line"/>
      <point x="421" y="896" type="line"/>
      <point x="512" y="805" type="line"/>
      <point x="384" y="677" type="line"/>
      <point x="384" y="549" type="line"/>
      <point x="283" y="448" type="line"/>
      <point x="384" y="347" type="line"/>
      <point x="384" y="219" type="line"/>
      <point x="512" y="91" type="line"/>
    </contour>
  </outline>
</glyph>
<glyph name="braceright" format="2">
  <advance width="768"/>
  <unicode hex="007D"/>
  <outline>
    <contour>
      <point x="128" y="91" type="line"/>
      <point x="256" y="219" type="line"/>
      <point x="256" y="347" type="line"/>
      <point x="357" y="448" type="line"/>
      <point x="256" y="549" type="line"/>
      <point x="256" y="677" type="line"/>
      <point x="128" y="805" type="line"/>
      <point x="219" y="896" type="line"/>
      <point x="384" y="731" type="line"/>
      <point x="384" y="603" type="line"/>
      <point x="539" y="448" type="line"/>
      <point x="384" y="293" type="line"/>
      <point x="384" y="165" type="line"/>
      <point x="219" y="0" type="line"/>
    </contour>
  </outline>
</glyph>
<glyph name="asciitilde" format="2">
  <advance width="768"/>
  <unicode hex="007E"/>
  <outline>
    <contour>
      <point x="91" y="640" type="line"/>
      <point x="0" y="731" type="line"/>
      <point x="192" y="923" type="line"/>
      <point x="448" y="667" type="line"/>
      <point x="549" y="768" type="line"/>
      <point x="640" y="677" type="line"/>
      <point x="448" y="485" type="line"/>
      <point x="192" y="741" type="line"/>
    </contour>
  </outline>
</glyph>
